<svg width="42" height="42" viewBox="0 0 42 42" fill="none" xmlns="http://www.w3.org/2000/svg">
<path d="M28.3741 21.0099C28.3741 22.467 27.9421 23.8913 27.1328 25.1027C26.3234 26.3142 25.173 27.2584 23.827 27.816C22.4811 28.3736 21.0001 28.5195 19.5712 28.2352C18.1424 27.951 16.8299 27.2494 15.7998 26.2191C14.7696 25.1888 14.0681 23.8762 13.7839 22.4471C13.4997 21.0181 13.6455 19.5369 14.203 18.1908C14.7605 16.8446 15.7047 15.6941 16.916 14.8846C18.1273 14.0751 19.5514 13.6431 21.0082 13.6431C22.9616 13.6437 24.8348 14.42 26.216 15.8015C27.5973 17.1829 28.3735 19.0563 28.3741 21.0099Z" fill="white"/>
<path d="M42 21.01C41.9977 24.7003 41.0242 28.325 39.1774 31.5198C37.3307 34.7147 34.6757 37.3671 31.4792 39.2106L31.2371 37.4558L31.2716 37.451L30.9488 35.1806L30.9233 35.1841L30.4047 31.4307L29.9531 28.1609C31.5791 26.1326 32.4633 23.6096 32.4595 21.01C32.4595 14.6852 27.3329 9.55675 21.0077 9.55675C14.6826 9.55675 9.55597 14.6846 9.55597 21.01C9.55191 23.6086 10.4353 26.1306 12.0599 28.1585L11.6084 31.4301L11.1337 34.8672H11.1189L10.7955 37.1377L10.8198 37.1413L10.5338 39.2112C7.3363 37.3727 4.67928 34.7245 2.83011 31.5329C0.980943 28.3413 0.00484117 24.7189 1.79618e-05 21.0302C-0.00480524 17.3415 0.961815 13.7166 2.80263 10.5202C4.64345 7.32374 7.29353 4.66857 10.4862 2.82179C13.6789 0.975016 17.3017 0.00177815 20.9899 2.43428e-06C24.6781 -0.00177328 28.3018 0.967974 31.4963 2.81167C34.6907 4.65537 37.3434 7.30799 39.1873 10.5026C41.0312 13.6973 42.0013 17.3213 42 21.01Z" fill="white"/>
<path d="M27.9346 40.8288C23.4489 42.3904 18.5673 42.3904 14.0815 40.8288L14.51 37.7252L14.7817 35.758L14.8333 35.3942L15.4658 30.8141C17.1565 31.7714 19.0662 32.2745 21.009 32.2745C22.9517 32.2745 24.8614 31.7714 26.5521 30.8141L27.5068 37.7246L27.9346 40.8288Z" fill="white"/>
</svg>
