<svg width="32" height="32" viewBox="0 0 32 32" fill="none" xmlns="http://www.w3.org/2000/svg">
<g clip-path="url(#clip0_11_1858)">
<path d="M24.5 0H7.5C3.35786 0 0 3.35786 0 7.5V24.5C0 28.6421 3.35786 32 7.5 32H24.5C28.6421 32 32 28.6421 32 24.5V7.5C32 3.35786 28.6421 0 24.5 0Z" fill="#D131FF"/>
<mask id="mask0_11_1858" style="mask-type:luminance" maskUnits="userSpaceOnUse" x="3" y="6" width="26" height="20">
<path d="M3.5 6.375H28.5V25.7413H3.5V6.375Z" fill="white"/>
</mask>
<g mask="url(#mask0_11_1858)">
<path d="M24.6634 8.09968C23.0426 7.35566 21.3321 6.82511 19.5748 6.52131C19.5588 6.51835 19.5423 6.52051 19.5277 6.52746C19.513 6.53442 19.5009 6.54583 19.493 6.56006C19.2733 6.95081 19.0298 7.46081 18.8594 7.86156C16.9378 7.57381 15.0262 7.57381 13.144 7.86156C12.9735 7.45181 12.7213 6.95081 12.5005 6.56006C12.4924 6.54612 12.4802 6.53496 12.4656 6.52805C12.451 6.52114 12.4346 6.51879 12.4187 6.52131C10.6612 6.82449 8.95062 7.35507 7.33005 8.09968C7.31618 8.10557 7.30447 8.11562 7.29655 8.12843C4.05555 12.9704 3.1678 17.6934 3.6033 22.3579C3.60451 22.3694 3.60801 22.3804 3.6136 22.3905C3.61918 22.4005 3.62673 22.4094 3.6358 22.4164C5.77405 23.9868 7.84542 24.9402 9.8783 25.5721C9.89411 25.5768 9.91099 25.5766 9.92667 25.5714C9.94235 25.5663 9.95609 25.5565 9.96605 25.5433C10.4469 24.8866 10.8755 24.1942 11.2432 23.4661C11.2482 23.4561 11.2511 23.4452 11.2517 23.434C11.2522 23.4228 11.2503 23.4117 11.2462 23.4012C11.2421 23.3908 11.2359 23.3814 11.2279 23.3736C11.2199 23.3658 11.2103 23.3598 11.1998 23.3559C10.5198 23.0979 9.87242 22.7836 9.24967 22.4264C9.23833 22.4198 9.22881 22.4104 9.22194 22.3992C9.21507 22.3879 9.21107 22.3752 9.21029 22.362C9.20952 22.3489 9.21198 22.3358 9.21748 22.3238C9.22297 22.3118 9.23132 22.3014 9.2418 22.2934C9.37317 22.1952 9.50229 22.094 9.62905 21.9899C9.64014 21.9808 9.65358 21.9749 9.66785 21.9729C9.68212 21.971 9.69665 21.9731 9.7098 21.9789C13.8013 23.8469 18.2307 23.8469 22.2738 21.9789C22.287 21.9727 22.3017 21.9703 22.3162 21.9721C22.3307 21.9738 22.3444 21.9797 22.3557 21.9889C22.4825 22.0936 22.612 22.1952 22.7439 22.2934C22.7544 22.3013 22.7629 22.3117 22.7684 22.3236C22.774 22.3355 22.7766 22.3486 22.7759 22.3618C22.7752 22.3749 22.7713 22.3877 22.7645 22.3989C22.7578 22.4102 22.7483 22.4197 22.737 22.4264C22.1139 22.7903 21.4612 23.1009 20.7859 23.3549C20.7754 23.3589 20.7659 23.3651 20.758 23.3731C20.75 23.381 20.7439 23.3905 20.7399 23.401C20.7359 23.4115 20.7341 23.4227 20.7348 23.4339C20.7354 23.4451 20.7384 23.4561 20.7435 23.4661C21.1175 24.1884 21.544 24.8824 22.0195 25.5423C22.0292 25.5558 22.0429 25.566 22.0586 25.5713C22.0744 25.5766 22.0914 25.5769 22.1073 25.5721C24.15 24.9402 26.2214 23.9868 28.3598 22.4164C28.369 22.4097 28.3766 22.4011 28.3822 22.3912C28.3878 22.3812 28.3912 22.3703 28.3923 22.3589C28.9135 16.9663 27.5192 12.2819 24.6959 8.12943C24.689 8.11594 24.6775 8.10538 24.6634 8.09968ZM11.8542 19.5178C10.6223 19.5178 9.6073 18.3869 9.6073 16.9981C9.6073 15.6092 10.6027 14.4783 11.8542 14.4783C13.1154 14.4783 14.1205 15.6192 14.1008 16.9981C14.1008 18.3869 13.1057 19.5178 11.8542 19.5178ZM20.1612 19.5178C18.9293 19.5178 17.9144 18.3869 17.9144 16.9981C17.9144 15.6092 18.9097 14.4783 20.1612 14.4783C21.4224 14.4783 22.4275 15.6192 22.4079 16.9981C22.4079 18.3869 21.4224 19.5178 20.1612 19.5178Z" fill="#030104"/>
</g>
</g>
<defs>
<clipPath id="clip0_11_1858">
<rect width="32" height="32" fill="white"/>
</clipPath>
</defs>
</svg>
