<svg width="210" height="210" viewBox="0 0 210 210" fill="none" xmlns="http://www.w3.org/2000/svg">
<g clip-path="url(#clip0_1_22)">
<g filter="url(#filter0_f_1_22)">
<path d="M98 135.273C112.912 135.273 125 122.452 125 106.636C125 90.8209 112.912 78 98 78C83.0883 78 71 90.8209 71 106.636C71 122.452 83.0883 135.273 98 135.273Z" fill="#00FFEA"/>
</g>
<path d="M98.1747 98.0454C93.8267 98.0454 90.2997 101.785 90.2997 106.398C90.2997 111.009 93.8267 114.75 98.1747 114.75C102.523 114.75 106.05 111.01 106.05 106.398C106.05 101.784 102.524 98.0454 98.1747 98.0454ZM98.1747 111.966C95.2787 111.966 92.8637 109.407 92.8637 106.336C92.8637 103.266 95.2187 100.768 98.1137 100.768C101.01 100.768 103.364 103.266 103.364 106.336C103.364 109.407 101.07 111.966 98.1747 111.966ZM119.02 106.013C119.004 105.944 119.012 105.868 118.992 105.801C118.985 105.771 118.966 105.754 118.957 105.729C118.943 105.69 118.946 105.643 118.927 105.605C115.109 96.3346 106.882 91 98.1137 91C89.3467 91 80.9545 96.3262 77.1352 105.597C77.1194 105.636 77.122 105.676 77.1076 105.721C77.0984 105.749 77.08 105.762 77.0709 105.789C77.0512 105.859 77.059 105.932 77.0459 106.003C77.0223 106.128 77 106.251 77 106.378C77 106.505 77.0223 106.625 77.0459 106.751C77.059 106.821 77.0499 106.897 77.0709 106.963C77.0787 106.995 77.0984 107.008 77.1076 107.035C77.1207 107.072 77.1181 107.12 77.1352 107.159C80.9545 116.427 89.2657 121.675 98.0327 121.675C106.801 121.675 115.11 116.438 118.928 107.168C118.948 107.126 118.944 107.086 118.958 107.041C118.967 107.018 118.985 107 118.992 106.973C119.012 106.904 119.007 106.83 119.02 106.758C119.044 106.633 119.065 106.511 119.065 106.382C119.065 106.26 119.042 106.139 119.019 106.012L119.02 106.013ZM98.0327 118.891C90.5977 118.891 83.2777 114.734 79.6814 106.376C83.2435 98.0475 90.6607 93.7826 98.1137 93.7826C105.567 93.7826 112.818 98.0518 116.382 106.385C112.821 114.712 105.488 118.891 98.0327 118.891Z" fill="#00FFEA"/>
<path d="M143 106.197C143 80.1308 123.077 59 98.5 59C73.9233 59 54 80.1308 54 106.197C54 132.263 73.9233 153.394 98.5 153.394C123.077 153.394 143 132.263 143 106.197Z" stroke="#00FFEA" stroke-opacity="0.5"/>
</g>
<defs>
<filter id="filter0_f_1_22" x="-19" y="-12" width="234" height="237.273" filterUnits="userSpaceOnUse" color-interpolation-filters="sRGB">
<feFlood flood-opacity="0" result="BackgroundImageFix"/>
<feBlend mode="normal" in="SourceGraphic" in2="BackgroundImageFix" result="shape"/>
<feGaussianBlur stdDeviation="45" result="effect1_foregroundBlur_1_22"/>
</filter>
<clipPath id="clip0_1_22">
<rect width="210" height="210" fill="white"/>
</clipPath>
</defs>
</svg>
