<svg width="370" height="728" viewBox="0 0 370 728" fill="none" xmlns="http://www.w3.org/2000/svg">
<path d="M289.09 727H1.14111V60.1567L80.9 1.46948H368.852V668.313C322.291 702.681 333.429 694.328 289.09 727Z" fill="#06EAE4" fill-opacity="0.05" stroke="#00FF84" stroke-miterlimit="10"/>
<g opacity="0.4">
<path d="M8.8916 611.395V719.078H259.5" stroke="#00FF84" stroke-width="1.12" stroke-linecap="round" stroke-linejoin="round"/>
<path d="M127.188 707.542H8.8916V719.076H127.188H181.026L127.188 707.542Z" fill="#00FF84"/>
<path d="M358.797 118.683V11H103.93" stroke="#00FF84" stroke-width="1.12" stroke-linecap="round" stroke-linejoin="round"/>
<path d="M240.501 23.0615H358.798V11H240.501H186.639L240.501 23.0615Z" fill="#00FF84"/>
</g>
<path d="M104.222 29.737C103.676 29.7177 103.139 29.8669 102.706 30.1586C102.509 30.3061 102.354 30.4918 102.253 30.7009C102.153 30.9101 102.11 31.1368 102.127 31.3631C102.114 31.5987 102.17 31.8332 102.291 32.0442C102.412 32.2552 102.593 32.4354 102.816 32.5676C103.327 32.8534 103.892 33.0573 104.484 33.1698C105.146 33.2903 105.862 33.4348 106.455 33.6034C107.097 33.7682 107.674 34.0851 108.123 34.5189C108.612 35.0484 108.858 35.7184 108.812 36.3979C108.804 36.8159 108.695 37.2277 108.49 37.6058C108.286 37.9838 107.991 38.3194 107.627 38.5901C106.762 39.2631 105.627 39.6095 104.47 39.5537C103.327 39.601 102.198 39.3173 101.259 38.7467C100.857 38.4939 100.534 38.158 100.317 37.7691C100.101 37.3802 99.9978 36.9505 100.018 36.5183H102.237C102.24 36.7456 102.297 36.9699 102.404 37.1772C102.51 37.3845 102.665 37.5702 102.858 37.7228C103.311 38.0344 103.882 38.185 104.457 38.1444C105.056 38.1754 105.647 38.0076 106.111 37.6746C106.453 37.4097 106.668 37.041 106.711 36.643C106.755 36.245 106.624 35.8475 106.345 35.5306C106.082 35.2801 105.75 35.0933 105.38 34.9886C104.96 34.8469 104.526 34.7381 104.084 34.6634C103.616 34.567 103.147 34.4466 102.706 34.3261C102.249 34.2057 101.81 34.04 101.397 33.8323C100.989 33.6212 100.656 33.3173 100.432 32.953C100.169 32.5154 100.041 32.0256 100.059 31.5317C100.043 31.0899 100.142 30.6506 100.35 30.2476C100.558 29.8446 100.869 29.4886 101.259 29.207C102.126 28.5958 103.219 28.283 104.333 28.3278C105.412 28.2776 106.48 28.5447 107.365 29.0866C107.749 29.35 108.061 29.6841 108.28 30.0651C108.499 30.4461 108.62 30.8646 108.633 31.2908H106.304C106.26 30.881 106.038 30.5014 105.683 30.2308C105.288 29.9062 104.764 29.7291 104.222 29.737Z" fill="#00FF84"/>
<path d="M111.97 29.8226V28.4133H120.778V29.8226H117.414V39.4586H115.347V29.8226H111.97Z" fill="#00FF84"/>
<path d="M132.741 39.4332L131.831 37.1808H126.552L125.642 39.4332H123.478L127.999 28.3879H130.398L134.919 39.4332H132.741ZM127.117 35.8197H131.252L129.185 30.6283L127.117 35.8197Z" fill="#00FF84"/>
<path d="M140.309 34.9646V39.4333H138.242V28.4122H142.597C143.795 28.3395 144.98 28.6716 145.906 29.3397C146.291 29.6411 146.595 30.0136 146.795 30.4302C146.995 30.8469 147.087 31.2972 147.063 31.7487C147.077 32.5207 146.764 33.2699 146.183 33.8523C145.603 34.4348 144.798 34.8095 143.921 34.9044L147.27 39.4815H144.761L141.591 35.0128L140.309 34.9646ZM140.309 29.8215V33.5795H142.597C143.237 33.6214 143.869 33.4443 144.362 33.0856C144.735 32.7023 144.939 32.2156 144.939 31.7125C144.939 31.2094 144.735 30.7227 144.362 30.3394C143.869 29.9807 143.237 29.8036 142.597 29.8455L140.309 29.8215Z" fill="#00FF84"/>
<path d="M150.426 29.8226V28.4133H159.234V29.8226H155.871V39.4586H153.803V29.8226H150.426Z" fill="#00FF84"/>
<path d="M163.604 41.7588V40.0725H173.708V41.7588H163.604Z" fill="#00FF84"/>
</svg>
