<svg width="210" height="210" viewBox="0 0 210 210" fill="none" xmlns="http://www.w3.org/2000/svg">
<g clip-path="url(#clip0_1_9)">
<g filter="url(#filter0_f_1_9)">
<path d="M105 129.231C118.382 129.231 129.231 118.382 129.231 105C129.231 91.6177 118.382 80.7692 105 80.7692C91.6177 80.7692 80.7692 91.6177 80.7692 105C80.7692 118.382 91.6177 129.231 105 129.231Z" fill="#00FFEA"/>
</g>
<path d="M116.936 98.7179L115.443 91.0224C115.3 90.3153 114.917 89.68 114.358 89.2224C113.801 88.7648 113.103 88.5131 112.381 88.5097H109.004C108.468 88.5025 107.939 88.6367 107.471 88.8985C107.001 89.1603 106.61 89.5408 106.334 90.0021L105 92.2788L103.665 90.0021C103.39 89.5408 102.999 89.1603 102.529 88.8985C102.061 88.6367 101.532 88.5025 100.995 88.5097H97.6186C96.8971 88.5131 96.1989 88.7648 95.6415 89.2224C95.0833 89.68 94.7001 90.3153 94.5556 91.0224L92.9851 98.7179C89.766 99.6603 87.7244 101.074 87.7244 102.644C87.7244 104.215 89.2164 105.157 91.6506 106.099V117.721C91.6426 118.068 91.7565 118.407 91.971 118.679C92.1864 118.952 92.4897 119.14 92.8281 119.214L102.251 121.49C102.557 121.528 102.867 121.49 103.154 121.381C103.442 121.271 103.698 121.094 103.901 120.862L105 119.528L106.099 120.862C106.249 121.053 106.44 121.209 106.658 121.317C106.875 121.426 107.113 121.485 107.356 121.49H107.748L117.171 119.214C117.51 119.14 117.814 118.952 118.029 118.679C118.243 118.407 118.357 118.068 118.349 117.721V106.099C120.783 105.157 122.276 103.98 122.276 102.644C122.276 101.31 120.234 99.6603 116.936 98.7179ZM116.639 117.25L107.984 119.449L106.256 117.25C106.095 117.079 105.9 116.942 105.684 116.85C105.468 116.756 105.235 116.708 105 116.708C104.765 116.708 104.532 116.756 104.316 116.85C104.1 116.942 103.905 117.079 103.744 117.25L102.016 119.449L93.0937 117.25V106.571C96.4412 107.341 101.566 108.181 105 108.141C108.434 108.181 113.292 107.341 116.639 106.571V117.25ZM105 105.68C98.0897 105.68 92.1999 103.666 90.3942 102.644C91.1472 102.254 91.936 101.938 92.75 101.702L94.5556 101.153L94.9487 99.2681L96.4403 90.4929H100.995L102.62 93.1781C102.887 93.6519 103.274 94.0459 103.744 94.3205C104.213 94.5951 104.456 94.9927 105 94.9927C105.544 94.9927 106.135 94.5951 106.605 94.3205C107.074 94.0459 107.462 93.6519 107.727 93.1781L109.004 90.4929H113.559L115.051 99.2681L115.443 101.153L117.25 101.702C118.064 101.938 118.853 102.254 119.606 102.644C117.799 103.666 111.91 105.68 105 105.68Z" fill="#00FFEA"/>
<path d="M99.5032 111.282C97.9327 111.282 96.3622 111.203 96.3622 112.067C96.3622 112.931 97.9327 114.423 99.5032 114.423C101.074 114.423 102.644 113.716 102.644 112.853C102.644 111.988 101.074 111.282 99.5032 111.282Z" fill="#00FFEA"/>
<path d="M110.497 114.423C112.067 114.423 113.638 112.931 113.638 112.067C113.638 111.203 112.067 111.282 110.497 111.282C108.926 111.282 107.356 111.988 107.356 112.853C107.356 113.716 108.926 114.423 110.497 114.423Z" fill="#00FFEA"/>
<path d="M144.487 105C144.487 83.1918 126.808 65.5128 105 65.5128C83.1918 65.5128 65.5128 83.1918 65.5128 105C65.5128 126.808 83.1918 144.487 105 144.487C126.808 144.487 144.487 126.808 144.487 105Z" stroke="#00FFEA" stroke-opacity="0.5" stroke-width="2"/>
</g>
<defs>
<filter id="filter0_f_1_9" x="-9.23077" y="-9.23077" width="228.462" height="228.462" filterUnits="userSpaceOnUse" color-interpolation-filters="sRGB">
<feFlood flood-opacity="0" result="BackgroundImageFix"/>
<feBlend mode="normal" in="SourceGraphic" in2="BackgroundImageFix" result="shape"/>
<feGaussianBlur stdDeviation="45" result="effect1_foregroundBlur_1_9"/>
</filter>
<clipPath id="clip0_1_9">
<rect width="210" height="210" fill="white"/>
</clipPath>
</defs>
</svg>
