<svg width="652" height="216" viewBox="0 0 652 216" fill="none" xmlns="http://www.w3.org/2000/svg">
<g clip-path="url(#clip0_11_2018)">
<path d="M639.74 0L0 0V196.356V200.101V200.834V204.509V205.451V215.5H611.227L612.081 214.791L651.272 181.655V0H639.74ZM650.433 10.3048L648.602 8.75791V12.4449L650.433 13.9801V14.7128L648.602 13.1194V16.8762L650.433 18.4114V181.329L610.842 214.791H90.1349L88.2909 213.232H83.791L85.635 214.791H84.7681L82.9241 213.232H78.5756L80.4196 214.791H79.4976L77.6536 213.232H73.2226L75.0665 214.791H74.1996L72.3556 213.232H68.0071L69.8511 214.791H21.8663L20.0223 213.232H15.5775L17.4215 214.791H16.5683L14.7243 213.232H10.3208L12.1648 214.791H11.0501L0.853186 206.195V205.253L2.66964 206.789V203.113L0.853186 201.543V200.822L2.66964 202.357V198.612L0.853186 197.077V9.01379L10.6648 0.721098H87.7267L89.5432 2.25636H93.9742L92.1578 0.721098H93.0109L94.8412 2.25636H99.2172L97.4007 0.721098H98.3915L100.208 2.25636H104.639L102.823 0.721098H103.676L105.506 2.25636H109.854L108.024 0.721098H629.488L631.305 2.25636H635.75L633.919 0.721098H634.786L636.603 2.25636H640.965L639.135 0.721098H640.648L650.488 9.02543L650.433 10.3048Z" fill="#00FF84"/>
</g>
<defs>
<clipPath id="clip0_11_2018">
<rect width="652" height="216" fill="white"/>
</clipPath>
</defs>
</svg>
