<svg width="330" height="131" viewBox="0 0 330 131" fill="none" xmlns="http://www.w3.org/2000/svg">
<g clip-path="url(#clip0_11_2331)">
<path d="M323.442 0L0 0V118.907V121.175V121.619V123.844V124.415V130.5H309.026L309.457 130.07L329.272 110.004V0H323.442ZM328.848 6.24025L327.922 5.30352V7.53622L328.848 8.4659V8.90962L327.922 7.94471V10.2197L328.848 11.1494V109.807L308.831 130.07H45.5707L44.6384 129.127H42.3633L43.2956 130.07H42.8573L41.925 129.127H39.7265L40.6588 130.07H40.1926L39.2603 129.127H37.0201L37.9524 130.07H37.514L36.5818 129.127H34.3832L35.3155 130.07H11.0552L10.1229 129.127H7.87572L8.80801 130.07H8.37665L7.44437 129.127H5.21801L6.1503 130.07H5.58675L0.431356 124.865V124.295L1.34973 125.225V122.999L0.431356 122.048V121.612L1.34973 122.541V120.273L0.431356 119.344V5.45847L5.39195 0.436674H44.3531L45.2715 1.36638H47.5118L46.5934 0.436674H47.0247L47.9501 1.36638H50.1625L49.2441 0.436674H49.7451L50.6634 1.36638H52.9037L51.9853 0.436674H52.4167L53.342 1.36638H55.5405L54.6152 0.436674H318.259L319.177 1.36638H321.424L320.499 0.436674H320.937L321.855 1.36638H324.061L323.136 0.436674H323.901L328.875 5.46552L328.848 6.24025Z" fill="#00FF84"/>
</g>
<defs>
<clipPath id="clip0_11_2331">
<rect width="330" height="131" fill="white"/>
</clipPath>
</defs>
</svg>
