<svg width="32" height="32" viewBox="0 0 32 32" fill="none" xmlns="http://www.w3.org/2000/svg">
<g clip-path="url(#clip0_11_1854)">
<path d="M29.5512 0.000712005H2.44789C2.14322 -0.00351928 1.84071 0.0523067 1.55762 0.165002C1.27453 0.277697 1.01641 0.445054 0.798006 0.657515C0.579602 0.869975 0.40519 1.12338 0.28473 1.40325C0.164269 1.68313 0.100121 1.98399 0.0959473 2.28865V29.712C0.100121 30.0166 0.164269 30.3175 0.28473 30.5974C0.40519 30.8772 0.579602 31.1306 0.798006 31.3431C1.01641 31.5556 1.27453 31.7229 1.55762 31.8356C1.84071 31.9483 2.14322 32.0041 2.44789 31.9999H29.5512C29.8559 32.0041 30.1584 31.9483 30.4415 31.8356C30.7246 31.7229 30.9827 31.5556 31.2011 31.3431C31.4195 31.1306 31.5939 30.8772 31.7144 30.5974C31.8348 30.3175 31.899 30.0166 31.9032 29.712V2.28865C31.899 1.98399 31.8348 1.68313 31.7144 1.40325C31.5939 1.12338 31.4195 0.869975 31.2011 0.657515C30.9827 0.445054 30.7246 0.277697 30.4415 0.165002C30.1584 0.0523067 29.8559 -0.00351928 29.5512 0.000712005ZM9.74371 26.784H4.94383V12.3844H9.74371V26.784ZM7.34377 10.3684C6.6818 10.3684 6.04695 10.1055 5.57887 9.63741C5.11079 9.16933 4.84783 8.53448 4.84783 7.87251C4.84783 7.21055 5.11079 6.5757 5.57887 6.10762C6.04695 5.63954 6.6818 5.37658 7.34377 5.37658C7.69527 5.33671 8.05123 5.37154 8.38834 5.47879C8.72545 5.58603 9.03611 5.76327 9.29997 5.9989C9.56383 6.23453 9.77495 6.52323 9.9195 6.84611C10.064 7.16899 10.1388 7.51876 10.1388 7.87251C10.1388 8.22627 10.064 8.57604 9.9195 8.89891C9.77495 9.22179 9.56383 9.5105 9.29997 9.74613C9.03611 9.98176 8.72545 10.159 8.38834 10.2662C8.05123 10.3735 7.69527 10.4083 7.34377 10.3684ZM27.0553 26.784H22.2554V19.0562C22.2554 17.1203 21.5674 15.8563 19.8235 15.8563C19.2837 15.8603 18.7582 16.0296 18.3176 16.3414C17.8771 16.6532 17.5427 17.0926 17.3595 17.6003C17.2343 17.9763 17.1801 18.3724 17.1995 18.7682V26.768H12.3996C12.3996 26.768 12.3996 13.6804 12.3996 12.3684H17.1995V14.4003C17.6356 13.6437 18.2697 13.0204 19.0338 12.5975C19.7978 12.1746 20.6627 11.9682 21.5354 12.0004C24.7353 12.0004 27.0553 14.0644 27.0553 18.4962V26.784Z" fill="#D131FF"/>
</g>
<defs>
<clipPath id="clip0_11_1854">
<rect width="32" height="32" rx="6" fill="white"/>
</clipPath>
</defs>
</svg>
