<svg width="32" height="32" viewBox="0 0 32 32" fill="none" xmlns="http://www.w3.org/2000/svg">
<g clip-path="url(#clip0_11_1866)">
<path d="M24.5 0H7.5C3.35786 0 0 3.35786 0 7.5V24.5C0 28.6421 3.35786 32 7.5 32H24.5C28.6421 32 32 28.6421 32 24.5V7.5C32 3.35786 28.6421 0 24.5 0Z" fill="#D131FF"/>
<path d="M7.13524 16.2987C7.13524 14.4462 8.64107 12.9404 10.4936 12.9404H14.8269V10.8821H10.4936C7.50357 10.8821 5.0769 13.3087 5.0769 16.2987C5.0769 19.2887 7.50357 21.7154 10.4936 21.7154H14.8269V19.6571H10.4936C8.64107 19.6571 7.13524 18.1512 7.13524 16.2987ZM11.5769 17.3821H20.2436V15.2154H11.5769V17.3821ZM21.3269 10.8821H16.9936V12.9404H21.3269C23.1794 12.9404 24.6852 14.4462 24.6852 16.2987C24.6852 18.1512 23.1794 19.6571 21.3269 19.6571H16.9936V21.7154H21.3269C24.3169 21.7154 26.7436 19.2887 26.7436 16.2987C26.7436 13.3087 24.3169 10.8821 21.3269 10.8821Z" fill="black"/>
</g>
<defs>
<clipPath id="clip0_11_1866">
<rect width="32" height="32" fill="white"/>
</clipPath>
</defs>
</svg>
