<svg width="22" height="22" viewBox="0 0 22 22" fill="none" xmlns="http://www.w3.org/2000/svg">
<path d="M10.9999 1.83325C7.45242 1.83325 4.58325 4.70242 4.58325 8.24992C4.58325 13.0624 10.9999 20.1666 10.9999 20.1666C10.9999 20.1666 17.4166 13.0624 17.4166 8.24992C17.4166 4.70242 14.5474 1.83325 10.9999 1.83325ZM6.41659 8.24992C6.41659 5.71992 8.46992 3.66659 10.9999 3.66659C13.5299 3.66659 15.5833 5.71992 15.5833 8.24992C15.5833 10.8899 12.9433 14.8408 10.9999 17.3066C9.09325 14.8591 6.41659 10.8624 6.41659 8.24992Z" fill="#00FF84"/>
<path d="M10.9999 10.5416C12.2656 10.5416 13.2916 9.51557 13.2916 8.24992C13.2916 6.98427 12.2656 5.95825 10.9999 5.95825C9.73427 5.95825 8.70825 6.98427 8.70825 8.24992C8.70825 9.51557 9.73427 10.5416 10.9999 10.5416Z" fill="#00FF84"/>
</svg>
