<svg width="94" height="48" viewBox="0 0 94 48" fill="none" xmlns="http://www.w3.org/2000/svg">
<mask id="mask0_59_243" style="mask-type:luminance" maskUnits="userSpaceOnUse" x="0" y="0" width="94" height="48">
<path d="M93.8784 0.17334H0.124451V47.9284H93.8784V0.17334Z" fill="white"/>
</mask>
<g mask="url(#mask0_59_243)">
<path fill-rule="evenodd" clip-rule="evenodd" d="M93.8789 0.17334H53.2052L53.1749 4.01902L70.2475 3.42962C73.304 2.33144 76.5002 1.87661 79.4489 1.93253C84.6898 1.67165 86.7366 2.81838 86.7366 2.81838L88.482 15.6544C88.482 15.6544 86.5809 13.6106 80.4938 13.7055C79.0776 13.7055 77.6757 13.9884 76.3713 14.5374C75.0671 15.0864 73.8867 15.8903 72.8999 16.9016C71.9134 17.9128 71.1405 19.1109 70.6274 20.4247C70.1141 21.7386 69.8713 23.1416 69.9126 24.5507C70.0253 29.9453 74.557 33.8914 80.4089 34.1718C87.0659 33.6325 88.4801 32.5946 88.4801 32.5946L87.7197 44.9919C84.7191 45.8086 81.5981 46.0969 78.4979 45.8436C77.1408 45.7084 74.6955 45.3036 71.9028 44.3975L52.8639 43.6621L52.8304 47.9284H93.8789V0.17334ZM65.926 41.7634C63.7416 40.4929 61.646 38.854 59.9488 36.7503L52.92 36.4949L52.8769 41.9823L65.926 41.7634ZM50.0847 42.0291L49.4117 36.3673L35.4584 35.8606L36.1826 42.2625L50.0847 42.0291ZM36.5377 45.3999L36.2685 43.0212L50.2668 43.5617L50.4179 44.8322L36.5377 45.3999ZM26.7403 42.4209L29.529 35.6451L22.2099 35.3791L29.7291 35.159L33.1008 26.9664L19.7943 26.4759L33.5179 25.9528L34.1606 24.3909L34.3338 25.9217L48.1078 25.3969L47.4419 19.794L20.1282 18.524C20.1282 18.524 22.6366 18.4171 26.3495 18.2581L23.9325 11.7544L20.298 11.6359L23.836 11.4948L21.4891 5.17998L21.4645 5.11376L20.4704 2.43891L7.44504 2.43542L0.124451 44.8322H15.0502L17.1419 25.0528L23.9806 42.4672L22.5479 42.4912L24.0122 42.5478L25.3187 45.875L26.6463 42.6494L24.0122 42.5478L23.9806 42.4672L26.7403 42.4209ZM35.3605 34.9942L49.2004 34.5891L48.3613 27.5292L34.4579 27.0166L35.3605 34.9942ZM52.936 34.4799L58.3021 34.3226C57.2551 32.4585 56.5033 30.3041 56.1834 27.8174L52.9892 27.6996L52.936 34.4799ZM53.0086 25.21L56.0124 25.0956C56.0122 24.9154 56.0141 24.7339 56.0183 24.5507C56.0525 23.0139 56.1893 21.5688 56.4174 20.2114L53.0492 20.0547L53.0086 25.21ZM58.8932 12.894C58.2236 14.113 57.6525 15.4477 57.1992 16.9049C56.8847 16.9258 55.3507 16.9972 53.0723 17.0991L53.1068 12.7054L58.8932 12.894ZM46.5743 12.4924L29.1533 11.9246L26.7703 18.2401C32.4359 17.9975 40.6695 17.6436 47.1528 17.3603L46.5743 12.4924ZM46.3489 10.5972L29.3991 11.273L31.6098 5.41472L45.7721 5.7432L46.3489 10.5972ZM60.8101 10.0207L53.1255 10.3271L53.1602 5.91455L64.8979 6.18678H64.8998C63.4032 7.24168 62.0191 8.51246 60.8101 10.0207ZM45.5981 4.2806L45.3788 2.43542H32.7341L31.8588 4.75491L45.5981 4.2806Z" fill="white"/>
</g>
</svg>
