<svg width="210" height="210" viewBox="0 0 210 210" fill="none" xmlns="http://www.w3.org/2000/svg">
<g clip-path="url(#clip0_1_27)">
<g filter="url(#filter0_f_1_27)">
<path d="M105 129.231C118.382 129.231 129.231 118.382 129.231 105C129.231 91.6177 118.382 80.7692 105 80.7692C91.6177 80.7692 80.7692 91.6177 80.7692 105C80.7692 118.382 91.6177 129.231 105 129.231Z" fill="#8CFF05"/>
</g>
<path d="M115.321 90.1923H83.9103C83.4938 90.1923 83.0947 90.3583 82.8002 90.6527C82.5058 90.9471 82.3402 91.3464 82.3397 91.7628V96.4744C82.3402 96.8908 82.5058 97.2901 82.8002 97.5845C83.0947 97.8788 83.4938 98.0449 83.9103 98.0449H115.321C115.737 98.0449 116.136 97.8788 116.431 97.5845C116.725 97.2901 116.891 96.8908 116.891 96.4744V91.7628C116.891 91.3464 116.725 90.9471 116.431 90.6527C116.136 90.3583 115.737 90.1923 115.321 90.1923ZM115.321 96.4744H83.9103V91.7628H115.321V96.4744ZM115.321 107.468H83.9103C83.4938 107.468 83.0947 107.634 82.8002 107.928C82.5058 108.223 82.3402 108.622 82.3397 109.038V113.75C82.3402 114.166 82.5058 114.566 82.8002 114.86C83.0947 115.154 83.4938 115.321 83.9103 115.321H115.321C115.737 115.321 116.136 115.154 116.431 114.86C116.725 114.566 116.891 114.166 116.891 113.75V109.038C116.891 108.622 116.725 108.223 116.431 107.928C116.136 107.634 115.737 107.468 115.321 107.468ZM115.321 113.75H83.9103V109.038H115.321V113.75ZM96.4744 102.756V104.327H83.9103V102.756H96.4744ZM83.9103 85.4808H96.4744V87.0513H83.9103V85.4808Z" fill="#8CFF05"/>
<path d="M139.551 99.6154C139.551 77.5594 121.671 59.6795 99.6154 59.6795C77.5594 59.6795 59.6795 77.5594 59.6795 99.6154C59.6795 121.671 77.5594 139.551 99.6154 139.551C121.671 139.551 139.551 121.671 139.551 99.6154Z" stroke="#8CFF05" stroke-opacity="0.5"/>
</g>
<defs>
<filter id="filter0_f_1_27" x="-9.23077" y="-9.23077" width="228.462" height="228.462" filterUnits="userSpaceOnUse" color-interpolation-filters="sRGB">
<feFlood flood-opacity="0" result="BackgroundImageFix"/>
<feBlend mode="normal" in="SourceGraphic" in2="BackgroundImageFix" result="shape"/>
<feGaussianBlur stdDeviation="45" result="effect1_foregroundBlur_1_27"/>
</filter>
<clipPath id="clip0_1_27">
<rect width="210" height="210" fill="white"/>
</clipPath>
</defs>
</svg>
