<svg width="474" height="216" viewBox="0 0 474 216" fill="none" xmlns="http://www.w3.org/2000/svg">
<path d="M464.892 0L0 0V196.356V200.101V200.834V204.509V205.451V215.5H444.172L444.792 214.791L473.272 181.655V0H464.892ZM472.662 10.3048L471.332 8.75791V12.4449L472.662 13.9801V14.7128L471.332 13.1194V16.8762L472.662 18.4114V181.329L443.892 214.791H65.5L64.16 213.232H60.89L62.23 214.791H61.6L60.26 213.232H57.1L58.44 214.791H57.77L56.43 213.232H53.21L54.55 214.791H53.92L52.58 213.232H49.42L50.76 214.791H15.89L14.55 213.232H11.32L12.66 214.791H12.04L10.7 213.232H7.5L8.84 214.791H8.03L0.620001 206.195V205.253L1.94 206.789V203.113L0.620001 201.543V200.822L1.94 202.357V198.612L0.620001 197.077V9.01379L7.75 0.721098H63.75L65.07 2.25636H68.29L66.97 0.721098H67.59L68.92 2.25636H72.1L70.78 0.721098H71.5L72.82 2.25636H76.04L74.72 0.721098H75.34L76.67 2.25636H79.83L78.5 0.721098H457.442L458.762 2.25636H461.992L460.662 0.721098H461.292L462.612 2.25636H465.782L464.452 0.721098H465.552L472.702 9.02543L472.662 10.3048Z" fill="#00FF84"/>
</svg>
